<?xml version="1.0" encoding="utf-8"?>
<!-- Generator: Adobe Illustrator 19.2.0, SVG Export Plug-In . SVG Version: 6.00 Build 0)  -->
<svg version="1.1" id="Capa_1" xmlns="http://www.w3.org/2000/svg" xmlns:xlink="http://www.w3.org/1999/xlink" x="0px" y="0px"
	 viewBox="0 0 81 95" enable-background="new 0 0 81 95" xml:space="preserve">
<path fill="#771F11" d="M79.24,88.03c0,2.87-17.04,6.47-38.04,6.47S3.19,90.9,3.19,88.03c0-2.87,17.02-5.19,38.02-5.19
	S79.24,85.16,79.24,88.03z"/>
<path fill="#B28A51" stroke="#835121" stroke-width="3" stroke-linecap="round" stroke-linejoin="round" stroke-miterlimit="10" d="
	M7.5,42.15v37.63c0,0-0.54,4.1,6.47,6.91c7.01,2.82,14.01,2.79,23.98,3.06c9.97,0.27,22.9-0.01,27.21-1.54
	c4.31-1.52,7.68-2.8,8.49-6.9c0.81-4.1,0.07-34.31,0.07-34.31s-7.54,2.78-21.55,3.3s-23.89-0.25-32.79-3.74S7.5,42.15,7.5,42.15z"/>
<path fill="#8C6A41" d="M47,53.15v35.52l11.97-0.2c0,0,4.38,0.2,11.63-3.73c1.91-1.04,2.58-2.52,2.66-7.39
	c0.08-4.87-0.68-27.98-0.68-27.98c-0.55,0.33-4.24,1.65-10.53,2.79C56.44,53.18,47,53.15,47,53.15z"/>
<path fill="#FEDA3C" stroke="#835121" stroke-width="3" stroke-linecap="round" stroke-linejoin="round" stroke-miterlimit="10" d="
	M76.58,44c-0.29,5.27-16.38,8.85-35.9,7.76C20.66,50.64,5.19,45.6,5.84,40.43c0.65-5.24,16.37-8.74,35.9-7.76
	C61.27,33.66,76.87,38.73,76.58,44z"/>
<path fill="#FEDA3C" stroke="#835121" stroke-width="3" stroke-linecap="round" stroke-linejoin="round" stroke-miterlimit="10" d="
	M40.67,51.75c-19.76-1.1-35.74-4.12-34.84-11.32"/>
<path fill="#FEDA3C" stroke="#835121" stroke-width="3" stroke-linecap="round" stroke-linejoin="round" stroke-miterlimit="10" d="
	M76.58,43.23c-0.29,5.27-16.38,8.85-35.9,7.76C20.66,49.87,5.19,44.83,5.84,39.66c0.65-5.24,16.37-8.74,35.9-7.76
	S76.87,37.96,76.58,43.23z"/>
<path fill="#FEDA3C" stroke="#835121" stroke-width="3" stroke-linecap="round" stroke-linejoin="round" stroke-miterlimit="10" d="
	M40.67,50.99c-19.76-1.1-35.74-4.12-34.84-11.32"/>
<path fill="#FEDA3C" stroke="#835121" stroke-width="3" stroke-linecap="round" stroke-linejoin="round" stroke-miterlimit="10" d="
	M76.58,42.46c-0.29,5.27-16.38,8.85-35.9,7.76C20.66,49.1,5.19,44.07,5.84,38.89c0.65-5.24,16.37-8.74,35.9-7.76
	C61.27,32.12,76.87,37.19,76.58,42.46z"/>
<path fill="#FEDA3C" stroke="#835121" stroke-width="3" stroke-linecap="round" stroke-linejoin="round" stroke-miterlimit="10" d="
	M40.67,50.22C20.91,49.11,4.94,46.1,5.84,38.89"/>
<g>
	<path fill="none" d="M77.62,37.85c-0.29,5.27-16.38,8.85-35.9,7.76C21.7,44.49,6.23,39.46,6.88,34.28
		c0.65-5.24,16.37-8.74,35.9-7.76S77.91,32.58,77.62,37.85z"/>
	
		<path fill="#835121" stroke="#835121" stroke-width="2" stroke-linecap="round" stroke-linejoin="round" stroke-miterlimit="10" d="
		M38.08,21.22l0.1,5.08l-1.86,0.04l-0.09-4.59c-0.02-1.23-0.82-1.96-2.11-1.94c-1.53,0.05-2.43,1.15-2.41,2.6l0.08,4.02l-1.86,0.04
		l-0.23-11.39l1.86-0.04l0.1,4.82c0.59-1.16,1.68-1.69,3.15-1.72C36.82,18.1,38.04,19.27,38.08,21.22z"/>
	
		<path fill="#835121" stroke="#835121" stroke-width="2" stroke-linecap="round" stroke-linejoin="round" stroke-miterlimit="10" d="
		M48.87,22.78c-0.15,2.47-2.08,4.05-4.72,3.89c-2.66-0.16-4.38-1.96-4.23-4.43c0.15-2.45,2.07-4.02,4.73-3.85
		C47.3,18.54,49.02,20.32,48.87,22.78z M41.77,22.38c-0.1,1.58,0.92,2.72,2.47,2.81c1.53,0.09,2.68-0.92,2.77-2.5
		c0.1-1.56-0.92-2.72-2.45-2.81C43.01,19.79,41.87,20.81,41.77,22.38z"/>
	
		<path fill="#835121" stroke="#835121" stroke-width="2" stroke-linecap="round" stroke-linejoin="round" stroke-miterlimit="10" d="
		M65.32,24.34l-0.87,5.01l-1.83-0.32l0.79-4.53c0.21-1.23-0.42-2.1-1.67-2.32c-1.46-0.21-2.52,0.7-2.76,2.11l-0.69,3.98l-1.83-0.32
		l0.78-4.53c0.21-1.23-0.41-2.1-1.65-2.31c-1.47-0.21-2.55,0.7-2.79,2.1l-0.69,3.98l-1.82-0.31l1.4-8.05l1.82,0.31l-0.27,1.56
		c0.79-1.03,1.95-1.33,3.36-1.09c1.51,0.26,2.43,1.15,2.61,2.45c0.78-1.25,2.01-1.65,3.55-1.38C64.69,21.03,65.65,22.42,65.32,24.34
		z"/>
	
		<path fill="#835121" stroke="#835121" stroke-width="2" stroke-linecap="round" stroke-linejoin="round" stroke-miterlimit="10" d="
		M70.7,22.98l-2.48,7.78l-1.75-0.56l2.48-7.78L70.7,22.98z M71.56,20.81c-0.18,0.57-0.76,0.85-1.35,0.67
		c-0.58-0.19-0.9-0.75-0.71-1.32c0.19-0.59,0.77-0.87,1.35-0.68C71.44,19.66,71.75,20.22,71.56,20.81z"/>
	
		<path fill="#835121" stroke="#835121" stroke-width="2" stroke-linecap="round" stroke-linejoin="round" stroke-miterlimit="10" d="
		M77.18,32.15l0.49,1.36c-1.39,0.51-2.75,0.37-4.06-0.35c-2.32-1.28-3.11-3.63-1.92-5.79c1.16-2.1,3.45-2.8,5.78-1.54
		c2.07,1.11,2.78,3.06,1.83,5.08l-6.34-1.46c-0.09,1.04,0.41,1.98,1.42,2.54C75.23,32.44,76.19,32.5,77.18,32.15z M73.36,28.19
		l-0.01,0.01l4.78,1.11c0.09-1-0.36-1.69-1.25-2.18C75.51,26.37,74.19,26.69,73.36,28.19z"/>
</g>
<path fill="#FEDA3C" stroke="#835121" stroke-width="3" stroke-linecap="round" stroke-linejoin="round" stroke-miterlimit="10" d="
	M35.5,43.81c0,0-0.55-5.05,5.22-7.67c5.77-2.62,5.5,2.27,5.5,2.27"/>
<path fill="#E1CE9E" d="M14.66,49.35c0.2,2.37-0.22,3.1-0.22,7.65c0,5.56,1.01,7.74,0.2,12.83c-0.81,5.09-2.42,9.7,0.13,10.85
	c1.65,0.74,3.91,0,3.37-4.48c-0.54-4.48-1.59-17.32-0.04-20.19c1.68-3.11,3.04-5.16,3.04-5.16s-1.6-0.29-3.3-0.67
	C16.46,49.87,14.66,49.35,14.66,49.35z"/>
<path opacity="0.37" fill="#BFBFBF" d="M5.9,15.72c2.36,0.41,3.91,2.56,3.47,4.8c-0.44,2.24-2.7,3.72-5.05,3.3s-3.91-2.56-3.47-4.8
	S3.54,15.3,5.9,15.72z"/>
<path opacity="0.13" fill="#BFBFBF" d="M5.58,2.57c2.29,0.4,3.8,2.49,3.37,4.66s-2.62,3.61-4.91,3.2s-3.8-2.49-3.37-4.66
	S3.29,2.17,5.58,2.57z"/>
<path opacity="0.45" fill="#BFBFBF" d="M21.49,17.47c3.01,0.53,5,3.28,4.44,6.14s-3.45,4.75-6.46,4.22s-5-3.28-4.44-6.14
	C15.58,18.83,18.47,16.94,21.49,17.47z"/>
</svg>
