<svg id="suelo" xmlns="http://www.w3.org/2000/svg" xmlns:xlink="http://www.w3.org/1999/xlink" viewBox="0 0 1280 800"><defs><radialGradient id="Degradado_sin_nombre_14" cx="640" cy="774.5" r="452.91" gradientUnits="userSpaceOnUse"><stop offset="0" stop-color="#ce7c3d"/><stop offset="0.31" stop-color="#bc7039"/><stop offset="0.64" stop-color="#b16837"/><stop offset="0.99" stop-color="#ad6636"/></radialGradient><clipPath id="clip-path"><rect x="37.5" y="88.5" width="1203" height="340.36" fill="none"/></clipPath><linearGradient id="Degradado_sin_nombre_16" x1="639" y1="499.5" x2="639" y2="88.5" gradientUnits="userSpaceOnUse"><stop offset="0" stop-color="#8e7b28" stop-opacity="0.7"/><stop offset="0.09" stop-color="#8b8044" stop-opacity="0.76"/><stop offset="0.2" stop-color="#878564" stop-opacity="0.84"/><stop offset="0.33" stop-color="#848a7f" stop-opacity="0.9"/><stop offset="0.46" stop-color="#818e93" stop-opacity="0.94"/><stop offset="0.61" stop-color="#7f90a2" stop-opacity="0.97"/><stop offset="0.77" stop-color="#7e92aa" stop-opacity="0.99"/><stop offset="1" stop-color="#7e92ad"/></linearGradient><clipPath id="clip-path-2"><rect x="538" y="560" width="206" height="84" fill="none"/></clipPath><radialGradient id="Degradado_sin_nombre_25" cx="639.5" cy="599.76" r="59.33" gradientUnits="userSpaceOnUse"><stop offset="0" stop-color="#ffe67f"/><stop offset="0.2" stop-color="#ffe074"/><stop offset="0.56" stop-color="#ffd056"/><stop offset="0.99" stop-color="#ffb82a"/></radialGradient></defs><title>LANDING day-01</title><rect y="749" width="1280" height="51" fill="url(#Degradado_sin_nombre_14)"/><rect x="1" width="1279" height="485" fill="#f6debb"/><rect y="433" width="1280" height="52" fill="#adab82"/><g clip-path="url(#clip-path)"><rect x="37.5" y="88.5" width="1203" height="411" stroke="#835121" stroke-linecap="round" stroke-linejoin="round" fill="url(#Degradado_sin_nombre_16)"/></g><polygon points="321.49 423.4 478 86.47 509.53 85.3 354.61 422.48 321.49 423.4" fill="#feab21" opacity="0.05"/><polygon points="375.49 423.4 532 86.47 543.86 87.62 388.94 424.8 375.49 423.4" fill="#feab21" opacity="0.05"/><polygon points="952.25 424.28 1108.76 87.34 1129.67 86.47 974.75 423.65 952.25 424.28" fill="#feab21" opacity="0.05"/><polygon points="985.54 422.6 1142.05 85.67 1149.52 88.71 994.61 425.89 985.54 422.6" fill="#feab21" opacity="0.05"/><rect x="45" y="177" width="93" height="248" fill="#fff" opacity="0.14"/><rect x="82" y="177" width="56" height="248" opacity="0.17"/><rect x="560" y="235" width="71" height="190" transform="translate(1191 660) rotate(180)" fill="#fff" opacity="0.14"/><rect x="560" y="235" width="49" height="190" transform="translate(1169 660) rotate(180)" opacity="0.17"/><rect x="313" y="123" width="74" height="302" fill="#fff" opacity="0.03"/><rect x="816" y="138" width="67" height="287" fill="#fff" opacity="0.03"/><rect x="765" y="162" width="60" height="263" fill="#fff" opacity="0.09"/><rect x="148" y="287" width="78" height="136" fill="#fff" opacity="0.09"/><rect x="172" y="287" width="54" height="136" opacity="0.21"/><rect x="227" y="313" width="53" height="111" transform="translate(507 737) rotate(180)" fill="#fff" opacity="0.05"/><rect x="617" y="287" width="97" height="136" fill="#fff" opacity="0.09"/><rect x="660" y="287" width="54" height="136" opacity="0.21"/><rect x="715" y="313" width="53" height="111" transform="translate(1483 737) rotate(180)" fill="#fff" opacity="0.12"/><rect x="388" y="253" width="52" height="171" transform="translate(828 677) rotate(180)" fill="#fff" opacity="0.15"/><rect x="434" y="220" width="52" height="204" transform="translate(920 644) rotate(180)" fill="#fff" opacity="0.05"/><rect x="479" y="280" width="88" height="144" transform="translate(1046 704) rotate(180)" fill="#fff" opacity="0.1"/><rect x="278" y="287" width="69" height="137" transform="translate(625 711) rotate(180)" fill="#fff" opacity="0.05"/><rect x="878" y="268" width="78" height="155" fill="#fff" opacity="0.09"/><rect x="902" y="269" width="54" height="154" opacity="0.21"/><rect x="1120" y="294" width="78" height="129" fill="#fff" opacity="0.09"/><rect x="1147" y="294" width="51" height="129" opacity="0.21"/><rect x="957" y="185" width="53" height="239" transform="translate(1967 609) rotate(180)" fill="#fff" opacity="0.14"/><rect x="1008" y="268" width="147" height="156" transform="translate(2163 692) rotate(180)" fill="#fff" opacity="0.05"/><rect x="124" y="367" width="76" height="57" fill="#fff" opacity="0.16"/><rect x="275" y="330" width="112" height="94" fill="#fff" opacity="0.25"/><rect x="873" y="359" width="46" height="66" fill="#fff" opacity="0.17"/><rect x="919" y="335" width="80" height="89" fill="#fff" opacity="0.17"/><rect x="38.5" y="86.5" width="1203" height="346.5" fill="none" stroke="#835121" stroke-linecap="round" stroke-linejoin="round" stroke-width="3"/><rect x="59.81" y="104.54" width="1158.69" height="307.46" fill="none" stroke="#835121" stroke-linecap="round" stroke-linejoin="round" stroke-width="3"/><polygon points="1241.1 433.73 1218.5 413 60 413 59.81 105 1218 105 1219.03 406.72 1241.35 412.38 1241.5 87 38 87 38.5 433.38 1241.1 433.73" fill="#a27440" stroke="#835121" stroke-linecap="round" stroke-linejoin="round" stroke-width="2"/><line y1="460.5" x2="1280" y2="460.5" fill="none" stroke="#835121" stroke-linecap="round" stroke-linejoin="round"/><line x1="214.5" y1="460" x2="214.5" y2="433" fill="none" stroke="#835121" stroke-linejoin="round"/><line x1="270.5" y1="460" x2="270.5" y2="433" fill="none" stroke="#835121" stroke-linejoin="round"/><line x1="321.5" y1="460" x2="321.5" y2="433" fill="none" stroke="#835121" stroke-linejoin="round"/><line x1="376.5" y1="460" x2="376.5" y2="433" fill="none" stroke="#835121" stroke-linejoin="round"/><line x1="55.5" y1="460" x2="55.5" y2="433" fill="none" stroke="#835121" stroke-linejoin="round"/><line x1="106.5" y1="460" x2="106.5" y2="433" fill="none" stroke="#835121" stroke-linejoin="round"/><line x1="161.5" y1="460" x2="161.5" y2="433" fill="none" stroke="#835121" stroke-linejoin="round"/><line x1="591.5" y1="460" x2="591.5" y2="433" fill="none" stroke="#835121" stroke-linejoin="round"/><line x1="646.5" y1="460" x2="646.5" y2="433" fill="none" stroke="#835121" stroke-linejoin="round"/><line x1="697.5" y1="460" x2="697.5" y2="433" fill="none" stroke="#835121" stroke-linejoin="round"/><line x1="753.5" y1="460" x2="753.5" y2="433" fill="none" stroke="#835121" stroke-linejoin="round"/><line x1="376.5" y1="460" x2="376.5" y2="433" fill="none" stroke="#835121" stroke-linejoin="round"/><line x1="431.5" y1="460" x2="431.5" y2="433" fill="none" stroke="#835121" stroke-linejoin="round"/><line x1="482.5" y1="460" x2="482.5" y2="433" fill="none" stroke="#835121" stroke-linejoin="round"/><line x1="538.5" y1="460" x2="538.5" y2="433" fill="none" stroke="#835121" stroke-linejoin="round"/><line x1="1022.5" y1="460" x2="1022.5" y2="433" fill="none" stroke="#835121" stroke-linejoin="round"/><line x1="1077.5" y1="460" x2="1077.5" y2="433" fill="none" stroke="#835121" stroke-linejoin="round"/><line x1="1128.5" y1="460" x2="1128.5" y2="433" fill="none" stroke="#835121" stroke-linejoin="round"/><line x1="1183.5" y1="460" x2="1183.5" y2="433" fill="none" stroke="#835121" stroke-linejoin="round"/><line x1="1241.5" y1="460" x2="1241.5" y2="433" fill="none" stroke="#835121" stroke-linejoin="round"/><line x1="807.5" y1="460" x2="807.5" y2="433" fill="none" stroke="#835121" stroke-linejoin="round"/><line x1="862.5" y1="460" x2="862.5" y2="433" fill="none" stroke="#835121" stroke-linejoin="round"/><line x1="913.5" y1="460" x2="913.5" y2="433" fill="none" stroke="#835121" stroke-linejoin="round"/><line x1="968.5" y1="460" x2="968.5" y2="433" fill="none" stroke="#835121" stroke-linejoin="round"/><line x1="191.5" y1="487" x2="191.5" y2="460" fill="none" stroke="#835121" stroke-linejoin="round"/><line x1="247.5" y1="487" x2="247.5" y2="460" fill="none" stroke="#835121" stroke-linejoin="round"/><line x1="298.5" y1="487" x2="298.5" y2="460" fill="none" stroke="#835121" stroke-linejoin="round"/><line x1="353.5" y1="487" x2="353.5" y2="460" fill="none" stroke="#835121" stroke-linejoin="round"/><line x1="32.5" y1="487" x2="32.5" y2="460" fill="none" stroke="#835121" stroke-linejoin="round"/><line x1="83.5" y1="487" x2="83.5" y2="460" fill="none" stroke="#835121" stroke-linejoin="round"/><line x1="138.5" y1="487" x2="138.5" y2="460" fill="none" stroke="#835121" stroke-linejoin="round"/><line x1="568.5" y1="487" x2="568.5" y2="460" fill="none" stroke="#835121" stroke-linejoin="round"/><line x1="623.5" y1="487" x2="623.5" y2="460" fill="none" stroke="#835121" stroke-linejoin="round"/><line x1="674.5" y1="487" x2="674.5" y2="460" fill="none" stroke="#835121" stroke-linejoin="round"/><line x1="730.5" y1="487" x2="730.5" y2="460" fill="none" stroke="#835121" stroke-linejoin="round"/><line x1="353.5" y1="487" x2="353.5" y2="460" fill="none" stroke="#835121" stroke-linejoin="round"/><line x1="408.5" y1="487" x2="408.5" y2="460" fill="none" stroke="#835121" stroke-linejoin="round"/><line x1="459.5" y1="487" x2="459.5" y2="460" fill="none" stroke="#835121" stroke-linejoin="round"/><line x1="515.5" y1="487" x2="515.5" y2="460" fill="none" stroke="#835121" stroke-linejoin="round"/><line x1="999.5" y1="487" x2="999.5" y2="460" fill="none" stroke="#835121" stroke-linejoin="round"/><line x1="1054.5" y1="487" x2="1054.5" y2="460" fill="none" stroke="#835121" stroke-linejoin="round"/><line x1="1105.5" y1="487" x2="1105.5" y2="460" fill="none" stroke="#835121" stroke-linejoin="round"/><line x1="1160.5" y1="487" x2="1160.5" y2="460" fill="none" stroke="#835121" stroke-linejoin="round"/><line x1="1218.5" y1="487" x2="1218.5" y2="460" fill="none" stroke="#835121" stroke-linejoin="round"/><line x1="784.5" y1="487" x2="784.5" y2="460" fill="none" stroke="#835121" stroke-linejoin="round"/><line x1="839.5" y1="487" x2="839.5" y2="460" fill="none" stroke="#835121" stroke-linejoin="round"/><line x1="890.5" y1="487" x2="890.5" y2="460" fill="none" stroke="#835121" stroke-linejoin="round"/><line x1="945.5" y1="487" x2="945.5" y2="460" fill="none" stroke="#835121" stroke-linejoin="round"/><line x1="55" y1="433.5" y2="433.5" fill="none" stroke="#835121" stroke-linejoin="round"/><line x1="1226" y1="433.5" x2="1280" y2="433.5" fill="none" stroke="#835121" stroke-linejoin="round"/><rect x="169.5" y="571.5" width="156" height="179" fill="#f3ddc2" stroke="#835121" stroke-linecap="round" stroke-linejoin="round" stroke-width="3"/><rect x="170.5" y="526.5" width="156" height="40" fill="#f3ddc2" stroke="#835121" stroke-linecap="round" stroke-linejoin="round" stroke-width="3"/><polyline points="342 795.14 487.38 753.5 487.5 753.5 487.5 570.65 342.23 612.13 341.5 612 341.5 794" fill="#f3ddc2" stroke="#835121" stroke-linecap="round" stroke-linejoin="round" stroke-width="3"/><line x1="227" y1="546.5" x2="268" y2="546.5" fill="#f3ddc2" stroke="#835121" stroke-linecap="round" stroke-linejoin="round" stroke-width="3"/><line x1="313.5" y1="644" x2="313.5" y2="682" fill="#f3ddc2" stroke="#835121" stroke-linecap="round" stroke-linejoin="round" stroke-width="3"/><polygon points="341 749.5 330.5 749.5 330.5 570.5 487.05 570.5 341.5 611.97 341 749.5" fill="#8c6a41" stroke="#835121" stroke-linecap="round" stroke-linejoin="round" stroke-width="3"/><rect x="330.5" y="526.5" width="157" height="40" fill="#f3ddc2" stroke="#835121" stroke-linecap="round" stroke-linejoin="round" stroke-width="3"/><line x1="387" y1="546.5" x2="429" y2="546.5" fill="#f3ddc2" stroke="#835121" stroke-linecap="round" stroke-linejoin="round" stroke-width="3"/><line x1="358.5" y1="682" x2="358.5" y2="719" fill="#f3ddc2" stroke="#835121" stroke-linecap="round" stroke-linejoin="round" stroke-width="3"/><polygon points="794.5 749.88 951.5 749.4 951.5 570.65 794.5 571.13 794.5 749.88" fill="#f3ddc2" stroke="#835121" stroke-linecap="round" stroke-linejoin="round" stroke-width="3"/><rect x="794.5" y="526.35" width="157" height="40.52" fill="#f3ddc2" stroke="#835121" stroke-linecap="round" stroke-linejoin="round" stroke-width="3"/><line x1="894" y1="546.5" x2="853" y2="546.5" fill="#f3ddc2" stroke="#835121" stroke-linecap="round" stroke-linejoin="round" stroke-width="3"/><line x1="807.5" y1="644" x2="807.5" y2="682" fill="#f3ddc2" stroke="#835121" stroke-linecap="round" stroke-linejoin="round" stroke-width="3"/><rect x="955.5" y="570.5" width="157" height="179" transform="translate(2068 1320) rotate(180)" fill="#f3ddc2" stroke="#835121" stroke-linecap="round" stroke-linejoin="round" stroke-width="3"/><line x1="968.5" y1="644" x2="968.5" y2="682" fill="#f3ddc2" stroke="#835121" stroke-linecap="round" stroke-linejoin="round" stroke-width="3"/><rect x="1116.5" y="570.5" width="163" height="179" transform="translate(2396 1320) rotate(180)" fill="#f3ddc2" stroke="#835121" stroke-linecap="round" stroke-linejoin="round" stroke-width="3"/><rect x="1116.5" y="526.5" width="163" height="40" transform="translate(2396 1093) rotate(180)" fill="#f3ddc2" stroke="#835121" stroke-linecap="round" stroke-linejoin="round" stroke-width="3"/><line x1="1217" y1="546.5" x2="1175" y2="546.5" fill="#f3ddc2" stroke="#835121" stroke-linecap="round" stroke-linejoin="round" stroke-width="3"/><line x1="1130.5" y1="644" x2="1130.5" y2="682" fill="#f3ddc2" stroke="#835121" stroke-linecap="round" stroke-linejoin="round" stroke-width="3"/><rect x="-0.5" y="570.5" width="167" height="179" fill="#f3ddc2" stroke="#835121" stroke-linecap="round" stroke-linejoin="round" stroke-width="3"/><rect x="-0.5" y="526.5" width="167" height="40" fill="#f3ddc2" stroke="#835121" stroke-linecap="round" stroke-linejoin="round" stroke-width="3"/><line x1="67" y1="546.5" x2="108" y2="546.5" fill="#f3ddc2" stroke="#835121" stroke-linecap="round" stroke-linejoin="round" stroke-width="3"/><line x1="153.5" y1="644" x2="153.5" y2="682" fill="#f3ddc2" stroke="#835121" stroke-linecap="round" stroke-linejoin="round" stroke-width="3"/><rect x="491.5" y="687.5" width="298" height="71" rx="12" ry="12" fill="#f3ddc2" stroke="#835121" stroke-linecap="round" stroke-linejoin="round" stroke-width="3"/><rect x="491.5" y="526.5" width="298" height="156" rx="12" ry="12" fill="#f3ddc2" stroke="#835121" stroke-linecap="round" stroke-linejoin="round" stroke-width="3"/><rect x="517.5" y="559.5" width="243" height="105" rx="12" ry="12" fill="#a78262" stroke="#835121" stroke-linecap="round" stroke-linejoin="round" stroke-width="3"/><path d="M754.5,715.5c-2,3.91-3.84,7.17-8.59,7.69-4.39.49-206.39-.53-214.39-0.53-4.75,0-9-3-10-7.17v10c1,4.18,5.5,7.17,10.25,7.17,8,0,209.4,1,213.78.53,4.75-.53,7-3.78,9-7.69v-10Z" fill="#8c6a41" stroke="#835121" stroke-linecap="round" stroke-linejoin="round" stroke-width="3"/><path d="M754.5,535.5c-2,3.91-3.84,7.17-8.59,7.69-4.39.49-206.39-.53-214.39-0.53-4.75,0-9-3-10-7.17v10c1,4.18,5.5,7.17,10.25,7.17,8,0,209.4,1,213.78.53,4.75-.53,7-3.78,9-7.69v-10Z" fill="#8c6a41" stroke="#835121" stroke-linecap="round" stroke-linejoin="round" stroke-width="3"/><line x1="331" y1="668.5" x2="340" y2="668.5" fill="none" stroke="#835121" stroke-linecap="round" stroke-linejoin="round" stroke-width="3"/><rect x="985.5" y="545.5" width="157" height="40" transform="translate(2128 1131) rotate(180)" fill="#f3ddc2" stroke="#835121" stroke-linecap="round" stroke-linejoin="round" stroke-width="3"/><line x1="1085" y1="565.5" x2="1044" y2="565.5" fill="#f3ddc2" stroke="#835121" stroke-linecap="round" stroke-linejoin="round" stroke-width="3"/><g clip-path="url(#clip-path-2)"><rect x="547" y="544" width="181" height="85" rx="12" ry="12" fill="#8c6a41"/></g><polyline points="985.5 585.46 951.5 566.33 951.5 526.38 985.5 545.5 985.5 585.5" fill="#8c6a41" stroke="#835121" stroke-linecap="round" stroke-linejoin="round" stroke-width="3"/><path d="M952.25,523.5c-1.25,0,33.25,22,33.25,22l156.63-1-34-19.12Z" fill="#8c6a41" stroke="#835121" stroke-linecap="round" stroke-linejoin="round" stroke-width="3"/><line x1="807.5" y1="644" x2="804.46" y2="638.82" fill="none" stroke="#835121" stroke-linecap="round" stroke-linejoin="round" stroke-width="3"/><line x1="807.5" y1="682" x2="804.09" y2="675.44" fill="none" stroke="#835121" stroke-linecap="round" stroke-linejoin="round" stroke-width="3"/><line x1="853" y1="546.5" x2="847.83" y2="541.9" fill="none" stroke="#835121" stroke-linecap="round" stroke-linejoin="round" stroke-width="3"/><line x1="894" y1="546.5" x2="887.45" y2="541.62" fill="none" stroke="#835121" stroke-linecap="round" stroke-linejoin="round" stroke-width="3"/><line x1="1044" y1="565.5" x2="1038.2" y2="562.5" fill="none" stroke="#835121" stroke-linecap="round" stroke-linejoin="round" stroke-width="3"/><line x1="1085" y1="565.5" x2="1076.25" y2="561.63" fill="none" stroke="#835121" stroke-linecap="round" stroke-linejoin="round" stroke-width="3"/><line x1="1175" y1="546.5" x2="1162.64" y2="542.1" fill="none" stroke="#835121" stroke-linecap="round" stroke-linejoin="round" stroke-width="3"/><line x1="1217" y1="546.5" x2="1203" y2="542" fill="none" stroke="#835121" stroke-linecap="round" stroke-linejoin="round" stroke-width="3"/><line x1="1130.5" y1="644" x2="1124.13" y2="640.27" fill="none" stroke="#835121" stroke-linecap="round" stroke-linejoin="round" stroke-width="3"/><line x1="1130.5" y1="682" x2="1124" y2="677.25" fill="none" stroke="#835121" stroke-linecap="round" stroke-linejoin="round" stroke-width="3"/><line x1="968.5" y1="644" x2="963.24" y2="639.49" fill="none" stroke="#835121" stroke-linecap="round" stroke-linejoin="round" stroke-width="3"/><line x1="968.5" y1="682" x2="962.89" y2="676.45" fill="none" stroke="#835121" stroke-linecap="round" stroke-linejoin="round" stroke-width="3"/><line x1="387" y1="546.5" x2="391.5" y2="543.04" fill="none" stroke="#835121" stroke-linecap="round" stroke-linejoin="round" stroke-width="3"/><line x1="429" y1="546.5" x2="431.5" y2="543.85" fill="none" stroke="#835121" stroke-linecap="round" stroke-linejoin="round" stroke-width="3"/><line x1="313.5" y1="644" x2="317.88" y2="639.63" fill="none" stroke="#835121" stroke-linecap="round" stroke-linejoin="round" stroke-width="3"/><line x1="313.5" y1="682" x2="318.12" y2="677.36" fill="none" stroke="#835121" stroke-linecap="round" stroke-linejoin="round" stroke-width="3"/><line x1="227" y1="546.5" x2="235" y2="542.77" fill="none" stroke="#835121" stroke-linecap="round" stroke-linejoin="round" stroke-width="3"/><line x1="268" y1="546.5" x2="274.49" y2="543.13" fill="none" stroke="#835121" stroke-linecap="round" stroke-linejoin="round" stroke-width="3"/><line x1="67" y1="546.5" x2="77.67" y2="542.93" fill="none" stroke="#835121" stroke-linecap="round" stroke-linejoin="round" stroke-width="3"/><line x1="108" y1="546.5" x2="113.75" y2="544.25" fill="none" stroke="#835121" stroke-linecap="round" stroke-linejoin="round" stroke-width="3"/><line x1="153.5" y1="644" x2="158.54" y2="641" fill="none" stroke="#835121" stroke-linecap="round" stroke-linejoin="round" stroke-width="3"/><line x1="153.5" y1="682" x2="159.46" y2="677.99" fill="none" stroke="#835121" stroke-linecap="round" stroke-linejoin="round" stroke-width="3"/><line x1="358.5" y1="682" x2="352.49" y2="679.68" fill="none" stroke="#835121" stroke-linecap="round" stroke-linejoin="round" stroke-width="3"/><line x1="358.5" y1="719" x2="353.31" y2="716.86" fill="none" stroke="#835121" stroke-linecap="round" stroke-linejoin="round" stroke-width="3"/><path d="M978.33,538.67a18.88,18.88,0,0,1,11.33-7.33c2.33-.33,11.67,3.67,12.67,3.17s9.67,3.5,11.33,4.17,6.21,6.61,6.21,6.61L986,545.5Z" fill="#cc5d32" stroke="#835121" stroke-linecap="round" stroke-linejoin="round" stroke-width="3"/><path d="M1013.33,537.67a18.88,18.88,0,0,1,11.33-7.33c2.33-.33,11.67,3.67,12.67,3.17s9.67,3.5,11.33,4.17,6.21,6.61,6.21,6.61l-33.87.23Z" fill="#cc5d32" stroke="#835121" stroke-linecap="round" stroke-linejoin="round" stroke-width="3"/><path d="M1048.33,537.67a18.88,18.88,0,0,1,11.33-7.33c2.33-.33,11.67,3.67,12.67,3.17s9.67,3.5,11.33,4.17,6.21,6.61,6.21,6.61l-33.87.23Z" fill="#cc5d32" stroke="#835121" stroke-linecap="round" stroke-linejoin="round" stroke-width="3"/><path d="M1083.33,537.67a22,22,0,0,1,12.87-7.33c2.65-.33,13.25,3.67,14.38,3.17s11,3.5,12.87,4.17,7,6.61,7,6.61l-38.46.23Z" fill="#cc5d32" stroke="#835121" stroke-linecap="round" stroke-linejoin="round" stroke-width="3"/><rect x="519" y="485" width="242" height="8" fill="#ccb9a3"/><polygon points="491.51 523.75 491.78 515.13 519 485 519 493 491.51 523.75" fill="#ccb9a3"/><polygon points="789 524 789 515 761 485 761 493 789 524" fill="#ccb9a3"/><rect x="789" y="515" width="491" height="8" fill="#adab82"/><rect y="515" width="492" height="8" fill="#adab82"/><polyline points="788.5 515 788.5 523.5 1280.5 523.5 1280.5 515" fill="none" stroke="#835121" stroke-linecap="round" stroke-linejoin="round" stroke-width="3"/><polyline points="-0.5 515 -0.5 523.5 491.5 523.5 491.5 515" fill="none" stroke="#835121" stroke-linecap="round" stroke-linejoin="round" stroke-width="3"/><line x1="519" y1="485.5" x2="761" y2="485.5" fill="none" stroke="#835121" stroke-linecap="round" stroke-linejoin="round" stroke-width="3"/><polygon points="-0.5 515.5 491.67 515.5 518.85 485.5 -0.5 485.5 -0.5 515.5" fill="#e4e3aa" stroke="#835121" stroke-linecap="round" stroke-linejoin="round" stroke-width="3"/><polygon points="1280.29 515.5 788.62 515.5 761.46 485.5 1280 485.5 1280.29 515.5" fill="#e4e3aa" stroke="#835121" stroke-linecap="round" stroke-linejoin="round" stroke-width="3"/><polygon points="491.44 523.5 518.85 492.5 761 492.5 788.62 523.5 491.44 523.5" fill="#f3ddc2" stroke="#835121" stroke-linecap="round" stroke-linejoin="round" stroke-width="3"/><line x1="518.5" y1="485" x2="518.5" y2="493" fill="none" stroke="#835121" stroke-miterlimit="10"/><line x1="761" y1="492.5" x2="761.46" y2="485" fill="none" stroke="#835121" stroke-miterlimit="10"/><ellipse cx="74.26" cy="390.94" rx="28.77" ry="6.11" fill="#fcfadc"/><ellipse cx="73.58" cy="500.75" rx="50.42" ry="9" fill="#a27440" stroke="#835121" stroke-linecap="round" stroke-linejoin="round" stroke-width="2"/><ellipse cx="73.58" cy="494.17" rx="50.42" ry="9" fill="#a27440" stroke="#835121" stroke-linecap="round" stroke-linejoin="round" stroke-width="2"/><path d="M60.89,397.16a101.26,101.26,0,0,0,12,.8c5.51-.06,14.15-0.34,18.4-1.12s8.63-1.72,10.32-2.82a7,7,0,0,0,2.41-2.76V489a10.11,10.11,0,0,1-6.27,4.48,126.51,126.51,0,0,1-14.91,2.21c-2.84.15-8.76,0.25-8.76,0.25l-0.88-94.16a13,13,0,0,0-3.33-2.38C67.33,398,60.89,397.16,60.89,397.16Z" fill="#fcfadc"/><path d="M45,391.25c0-3,8.84-5.61,21-6.45" fill="none" stroke="#835121" stroke-linecap="round" stroke-linejoin="round" stroke-width="2"/><path d="M66,384.8c23.62-.8,35.86,2.52,38,5.25" fill="none" stroke="#835121" stroke-linecap="round" stroke-linejoin="round" stroke-width="2"/><path d="M104,390a1.93,1.93,0,0,1,.47,1.2,1.73,1.73,0,0,1-.22.83c-1,1.9-5.53,3.56-12,4.63a106.18,106.18,0,0,1-15,1.27l-2.5,0a118.64,118.64,0,0,1-13.61-.75" fill="none" stroke="#835121" stroke-linecap="round" stroke-linejoin="round" stroke-width="2"/><path d="M74.25,495.82c16.43,0,29.75-2.9,29.75-6.62V391" fill="none" stroke="#835121" stroke-linecap="round" stroke-linejoin="round" stroke-width="2"/><path d="M45,391v98.2c0,3.08,9.08,5.68,21.5,6.49,0,0,4.5.82,6.75,6.57s0-99.5,0-99.5,1.5-3.37-10.5-4.87c-9.58-1.12-17.75-4-17.75-6.62" fill="#fcfadc" stroke="#835121" stroke-linecap="round" stroke-linejoin="round" stroke-width="2"/><path d="M77.67,408a37.51,37.51,0,0,0,14.79-1.5c5-1.33,6.54-2.5,6.54-2.5v81s-0.05.31-6.33,2c-4.33,1.17-9.5,1.5-13.17,0-1.55-.63-1.83-79-1.83-79" fill="#e1ce9e"/><path d="M65.67,391.25c2.08,0.92,4.33,1.17,7.67,1.33s7.22-.25,9.11-1.58,0.56-.61-0.44-3.64-0.28-3.45.82-6.11S83.5,377,80,374.67a12.23,12.23,0,0,0-11.17-1c-3.17,1.33-6,5.32-3.45,9.46,1.53,2.54,2.28,2.87,1.95,3.79-0.91,2.51-2.8,2.31-3.09,3.13C63.76,391.43,65.67,391.25,65.67,391.25Z" fill="#a27440" stroke="#835121" stroke-linecap="round" stroke-linejoin="round" stroke-width="2"/><line x1="124" y1="494" x2="124" y2="501" fill="#a27440" stroke="#835121" stroke-linecap="round" stroke-linejoin="round" stroke-width="2"/><line x1="23" y1="494" x2="23" y2="501" fill="#a27440" stroke="#835121" stroke-linecap="round" stroke-linejoin="round" stroke-width="2"/><path d="M150.5,482.43C141,494,120,490.7,134,498.21s22.48,6.27,22.48,6.27l7.64-12.67,2.51-23.23L167,458.51l-5.58-4.38L157,447.39,156.7,473.5Z" fill="#feab21" stroke="#835121" stroke-miterlimit="10"/><path d="M186.4,489.46s-1.87,4.55,9.63,0,14.49-4.06,20-13.53,7.71-10.24,8.22-17.47-1.49-6.6-1.49-6.6L209,456.5H188l-2.16,8.05Z" fill="#feab21" stroke="#835121" stroke-miterlimit="10"/><path d="M200.44,510.8l66-21.4-51.74.11-26.88,6.7S188.11,498.58,200.44,510.8Z" fill="#eb431e" stroke="#835121" stroke-linecap="round" stroke-linejoin="round" stroke-width="3"/><path d="M148.7,510.92c2.57-1.48,4-2.11,7.78-6.55s7.89-11.83,8.77-16.12A67.33,67.33,0,0,0,167,473.66c0.29-8.08,0-15.16,0-15.16h18.2a106.74,106.74,0,0,0,0,17.85c0.88,8.15.59,17.21,4,22.21s11.3,12.18,11.3,12.18Z" fill="#eb431e" stroke="#835121" stroke-linecap="round" stroke-linejoin="round" stroke-width="3"/><rect x="156.5" y="420.5" width="58" height="36" rx="12" ry="12" fill="#eb431e" stroke="#835121" stroke-linecap="round" stroke-linejoin="round" stroke-width="3"/><path d="M214.75,489.52c2.57-1.48,4-2.11,7.78-6.55s7.89-11.83,8.77-16.12A65.1,65.1,0,0,0,233,452.47c0.29-8.08,0-15,0-15h18.2a104.07,104.07,0,0,0,0,17.66c0.88,8.15.59,17.11,4,22.11s11.3,12.13,11.3,12.13Z" fill="#eb431e" stroke="#835121" stroke-linecap="round" stroke-linejoin="round" stroke-width="3"/><rect x="222.5" y="399.5" width="58" height="36" rx="12" ry="12" fill="#eb431e" stroke="#835121" stroke-linecap="round" stroke-linejoin="round" stroke-width="3"/><path d="M215,429.46l66-21.34s1.89-8.32-8.09-8.57-42.13-.09-42.13-0.09L167.27,420.5h37.28S215.12,421.57,215,429.46Z" fill="#eb431e" stroke="#835121" stroke-linecap="round" stroke-linejoin="round" stroke-width="3"/><path d="M215,436.21l66.23-21.74L281,426.37s-0.48,5.43-4.1,7-68,23.27-68,23.27,5.57-1.84,5.79-5.35S215,436.21,215,436.21Z" fill="#eb431e" stroke="#835121" stroke-linecap="round" stroke-linejoin="round" stroke-width="3"/><path d="M206,419.12L235,409l27.66-9.57,12.65,0.36s2.45-.5,4.48,2.44a7.67,7.67,0,0,1,1.26,5.89l-65.05,21a8.91,8.91,0,0,0-2.34-6C211.17,420.5,206,419.12,206,419.12Z" fill="#771f11" opacity="0.49"/><ellipse cx="182.32" cy="439.96" rx="8.59" ry="7.19" fill="#eb431e" stroke="#835121" stroke-linecap="round" stroke-linejoin="round" stroke-width="3"/><path d="M180.48,440.86l-3.16,1.5s-14.6,6.64-19.44-6.09-11-33.19-11-33.19-3.52-10.8-18.05-7.34-23.48,5.67-23.48,5.67" fill="none" stroke="#835121" stroke-linecap="round" stroke-linejoin="round" stroke-width="3"/><line x1="107.24" y1="398.95" x2="129.4" y2="393.78" fill="none" stroke="#835121" stroke-linecap="round" stroke-linejoin="round" stroke-width="3"/><line x1="108.34" y1="402.04" x2="130.5" y2="396.88" fill="none" stroke="#835121" stroke-linecap="round" stroke-linejoin="round" stroke-width="3"/><ellipse cx="570.04" cy="507.74" rx="47.04" ry="6.76" fill="#771f11"/><path d="M528.5,448v49s-0.75,5.33,7.92,9,17.29,3.64,29.63,4,28.31,0,33.65-2,9.49-3.65,10.49-9,0.08-44.67.08-44.67-9.34,3.63-26.67,4.29-29.48-.33-40.48-4.87S528.5,448,528.5,448Z" fill="#b28a51" stroke="#835121" stroke-linecap="round" stroke-linejoin="round" stroke-width="3"/><path d="M577,460.92v47.75l12.09-.13s7,0.33,17.27-5.08c2.69-1.42,3.21-3.28,3.31-9.62S609,457.41,609,457.41c0.49,0.24-5.34,2.63-13.15,3.36A184.08,184.08,0,0,1,577,460.92Z" fill="#8c6a41"/><path d="M613.8,450.41c-0.36,6.86-20.26,11.52-44.42,10.1-24.76-1.45-43.9-8-43.1-14.75s20.25-11.38,44.42-10.1S614.16,443.55,613.8,450.41Z" fill="#feda3c" stroke="#835121" stroke-linecap="round" stroke-linejoin="round" stroke-width="3"/><path d="M614.08,447.88c-0.36,6.86-20.26,11.52-44.42,10.1-24.76-1.45-43.9-8-43.1-14.75s20.25-11.38,44.42-10.1S614.44,441,614.08,447.88Z" fill="#feda3c" stroke="#835121" stroke-linecap="round" stroke-linejoin="round" stroke-width="3"/><path d="M563.67,449.65s-3.83-6,3.27-8.72,13.68,0.73,13.68.73" fill="#feda3c" stroke="#835121" stroke-linecap="round" stroke-linejoin="round" stroke-width="3"/><path d="M537.17,456.33c-1.33,4.83-2.17,3.1-.83,10.22s1.83,9.86.83,16.49-3,12.63.17,14.13c2,1,4.83,0,4.17-5.83s-2.49-22,.09-25.75a35.86,35.86,0,0,1,5.76-6.42s-4.26-.84-6.35-1.42A34.84,34.84,0,0,1,537.17,456.33Z" fill="#e1ce9e"/><path d="M563.73,461.78s4.21,8.44,4.21,12.89-1.47,12.39-1.72,17.89,4.51,5.72,5.39,2.72,0.13-8,0-13.51-2.75-9.43-1.31-13,2.78-6.45,2.78-6.45l-4.92-.17Z" fill="#e1ce9e"/><ellipse cx="697.08" cy="504.56" rx="47.04" ry="6.76" fill="#771f11"/><path d="M646.83,481.67C649.67,488,655.33,499,663,501s20.25,3.76,34.83,3.76c7.17,0,32.5-4.1,37.17-7.26s12.33-18.44,12.33-18.44a64.43,64.43,0,0,0-20.58-8.3,147.44,147.44,0,0,0-31-2c-7.67.33-19.58,0.27-34.25,4.29C655.4,474.72,646.83,481.67,646.83,481.67Z" fill="#fa7224" stroke="#835121" stroke-linecap="round" stroke-linejoin="round" stroke-width="3"/><ellipse cx="697.08" cy="482.31" rx="41.64" ry="6.4" fill="#eb431e"/><path d="M646.83,481.67a237.6,237.6,0,0,0,23.5,4.83c19.67,3,27.5,2,47,0s30-7.45,30-7.45" fill="none" stroke="#835121" stroke-linecap="round" stroke-linejoin="round" stroke-width="3"/><path d="M723.75,490.38L775,506.13s5.84,1.25,7.34-.75,1.91-3.37-3.84-5.12S735,487.86,735,487.86Z" fill="#b28a51" stroke="#835121" stroke-linecap="round" stroke-linejoin="round" stroke-width="3"/><path d="M672,482.31a2.63,2.63,0,0,1,2.83-3.26,3.07,3.07,0,0,1,3.33,3.26,10.83,10.83,0,0,1-3.33.86A3.85,3.85,0,0,1,672,482.31Z" fill="#e57b6a" opacity="0.59"/><path d="M686,480.21s-0.91-3.57,3.86-3.63,4.54,3.63,4.54,3.63a17.37,17.37,0,0,1-4.54,1A6,6,0,0,1,686,480.21Z" fill="#e57b6a" opacity="0.96"/><path d="M680,484.21s-0.91-3.57,3.86-3.63,4.54,3.63,4.54,3.63a17.37,17.37,0,0,1-4.54,1A6,6,0,0,1,680,484.21Z" fill="#e57b6a" opacity="0.24"/><path d="M694,484.21s-0.91-3.57,3.86-3.63,4.54,3.63,4.54,3.63a17.37,17.37,0,0,1-4.54,1A6,6,0,0,1,694,484.21Z" fill="#e57b6a" opacity="0.24"/><path d="M699,479.35s-0.73-2.72,3.1-2.77,3.65,2.77,3.65,2.77a14.58,14.58,0,0,1-3.65.73A5,5,0,0,1,699,479.35Z" fill="#e57b6a" opacity="0.24"/><path d="M710,481.35s-0.73-2.72,3.1-2.77,3.65,2.77,3.65,2.77a14.58,14.58,0,0,1-3.65.73A5,5,0,0,1,710,481.35Z" fill="#e57b6a" opacity="0.6"/><path d="M709,484.35s-0.73-2.72,3.1-2.77,3.65,2.77,3.65,2.77a14.58,14.58,0,0,1-3.65.73A5,5,0,0,1,709,484.35Z" fill="#e57b6a" opacity="0.76"/><ellipse cx="821" cy="441.42" rx="24" ry="4.92" fill="#a87522" stroke="#835121" stroke-linecap="round" stroke-linejoin="round" stroke-width="3"/><path d="M803.82,446.5c-3.49-8-4.32-19.43-13.82-24.43s-10.33-13.62-15.17-26.78-2.17-14.81,6.83-17.81,14-4.57,19.17,9.6,9.83,18.37,4.5,30.2,6.17,29.23,6.17,29.23h-7.68Z" fill="#c39c63" stroke="#835121" stroke-linecap="round" stroke-linejoin="round" stroke-width="3"/><path d="M833.14,453.5c3.49-8,4.32-19.43,13.82-24.43s10.33-13.62,15.17-26.78,2.17-14.81-6.83-17.81-14-4.57-19.17,9.6-9.83,18.37-4.5,30.2-6.17,29.23-6.17,29.23h7.68Z" fill="#c39c63" stroke="#835121" stroke-linecap="round" stroke-linejoin="round" stroke-width="3"/><path d="M811.3,448.38c-0.39-8.72,2.93-19.69-4.14-27.76s-4.76-16.42-4.56-30.44,3.29-14.6,12.76-14.18,14.71,0.75,14.45,15.83,2.6,20.67-6.62,29.8-4.72,29.5-4.72,29.5Z" fill="#8c6a41" stroke="#835121" stroke-linecap="round" stroke-linejoin="round" stroke-width="3"/><path d="M825.3,450.38c-0.39-8.72,2.93-19.69-4.14-27.76s-4.76-16.42-4.56-30.44,3.29-14.6,12.76-14.18,14.71,0.75,14.45,15.83,2.6,20.67-6.62,29.8-4.72,29.5-4.72,29.5Z" fill="#b28a51" stroke="#835121" stroke-linecap="round" stroke-linejoin="round" stroke-width="3"/><path d="M797.5,442v59s4.62,5.51,24.63,5.51c18.63,0,23.38-6.51,23.38-6.51V442s-5.25,5.75-24,5.75c-9.82,0-15.94-1.58-19.54-3.08A13.36,13.36,0,0,1,797.5,442Z" fill="#fdb32b" stroke="#835121" stroke-linecap="round" stroke-linejoin="round" stroke-width="3"/><path d="M821.13,451.94l0.44,49.66s7.84,0.2,13-1.55A28.29,28.29,0,0,0,842,496.5V449a47.13,47.13,0,0,1-9,2.14A70,70,0,0,1,821.13,451.94Z" fill="#a87522" opacity="0.7"/><path d="M1158.4,480.65s-2-19.66,0-29.66,3.32-17.34,5.32-23.34,4.82-12.15,4.82-12.15H1238s3.67,8.17,5.33,11.5,4,17.33,4.17,26.5,0.17,13.1,0,21.8-0.17,16.7-3.83,20.7-41.11,4.5-41.11,4.5S1171,502,1166,498,1158.4,480.65,1158.4,480.65Z" fill="#fb8b2c" stroke="#835121" stroke-linecap="round" stroke-linejoin="round" stroke-width="3"/><rect x="1166.67" y="400" width="73" height="13.67" fill="#fb8b2c" stroke="#835121" stroke-linecap="round" stroke-linejoin="round" stroke-width="3"/><rect x="1183.36" y="433.5" width="37.64" height="46.36" rx="12" ry="12" fill="none" stroke="#835121" stroke-linecap="round" stroke-linejoin="round" stroke-width="3"/><ellipse cx="1193.37" cy="473.63" rx="4.5" ry="8.15" transform="translate(369.75 1458.57) rotate(-71.74)" fill="#b28a51" stroke="#835121" stroke-linecap="round" stroke-linejoin="round"/><ellipse cx="1199.63" cy="467.48" rx="4.5" ry="8.15" transform="translate(379.88 1460.29) rotate(-71.74)" fill="#b28a51" stroke="#835121" stroke-linecap="round" stroke-linejoin="round"/><ellipse cx="1206" cy="473.88" rx="8.15" ry="4.5" transform="translate(-84.81 587.1) rotate(-26.46)" fill="#b28a51" stroke="#835121" stroke-linecap="round" stroke-linejoin="round"/><ellipse cx="1200.94" cy="460" rx="8.15" ry="4.5" transform="translate(-79.15 583.39) rotate(-26.46)" fill="#b28a51" stroke="#835121" stroke-linecap="round" stroke-linejoin="round"/><ellipse cx="1190.44" cy="464.05" rx="8.15" ry="4.5" transform="translate(-82.06 579.13) rotate(-26.46)" fill="#b28a51" stroke="#835121" stroke-linecap="round" stroke-linejoin="round"/><ellipse cx="1191.5" cy="456.68" rx="8.15" ry="4.5" transform="translate(-78.66 578.83) rotate(-26.46)" fill="#b28a51" stroke="#835121" stroke-linecap="round" stroke-linejoin="round"/><ellipse cx="1213.87" cy="472.86" rx="8.15" ry="4.5" transform="translate(-83.53 590.5) rotate(-26.46)" fill="#b28a51" stroke="#835121" stroke-linecap="round" stroke-linejoin="round"/><ellipse cx="1212.17" cy="459.79" rx="8.15" ry="4.5" transform="translate(-77.88 588.37) rotate(-26.46)" fill="#b28a51" stroke="#835121" stroke-linecap="round" stroke-linejoin="round"/><ellipse cx="1212.11" cy="465.51" rx="8.15" ry="4.5" transform="matrix(1, -0.05, 0.05, 1, -21.61, 60.75)" fill="#b28a51" stroke="#835121" stroke-linecap="round" stroke-linejoin="round"/><polyline points="880.75 485 946.6 515 1210 513.13 1156.87 483.32 880.75 482.17" fill="#fcfadc" stroke="#835121" stroke-linecap="round" stroke-linejoin="round" stroke-width="2"/><path d="M880.75,482.17c1.3,0,22.17,1.42,31.95,4.42s9.13,9.28,18.91,11.37,17,10.57,22.86,12.82a118.45,118.45,0,0,0,11.64,3.74s11.14-3.51,17.66-3.76,14.23,4.75,22.76,3.75,20.15,1,30,0,26.79-4.78,31.35-4.64,6.41-1.86,10.7.89,34.29,4.25,38.85,3.75,17.6-3.75,17.6-3.75l10-.36s3.64-1.67,9.51-.53,0.65,0.64,5.87,1.14-3.26,1,5.22.5,4.65-.31,6.85-0.44a11,11,0,0,1,1.63-.06l25.21-2.5s-13.91-5.5-18.69-6.83a251.87,251.87,0,0,0-26.51-4.67c-6.52-.67-21.73-2.67-26.08-5.33s-13.91-8-13.91-8l-12.17.67s3.48,0.67-5.65-2.33,3,0.59-6.52-1-41.29-.78-44.33-0.2-11,2.83-11,2.83,1.9-1.08-5.05-1.08h-6.52S995.5,485,992,485.67s-25.27-.75-25.27-0.75l-16-1.42H934.21s-6.09-3.14-7.39-3.48-13.91,0-13.91,0l-21.73-.16Z" fill="#feda3c" stroke="#835121" stroke-linecap="round" stroke-linejoin="round"/><path d="M890,475l-2,1.82,0.93,3.08,3.23,1.11h5.54l11.74,1.75,7.82,2.75,6.85,6.5,8.8,2.78L943.4,499l6.79,6.25L960,510.5l5.22,2.25,8.48-1.75,8.48-1.5,11.74,1.63,7.82,1.88h29l15.32-1.75,9.78-1.5,5.57-.75,4.21-.25,9.78-1.5s10.43,4.25,13.37,4,19.89,2.5,22.17,1.75,11.41-1,13.37-1.5,11.74-2.75,13.37-2.75,4.45-2.25,7.44-1.5a136.89,136.89,0,0,0,14.4,2c1.3,0,9.13.5,9.13,0.5l2.1-.52-1.83-4.94-11.95-1.93-7.37-.87s-15.21,1.11-19.12,2.36-14.8,3.18-19.69,2.68-29.68-1.31-35.2-5.1c-2.46-1.69-15.18,1.94-20.72,2.81-5.87.93-14.12,2.57-25.48,2.54s-21.77.29-28.47,0c-7.66-.37-11.32-3.26-18.91-3.25-8.53,0-14.66,4.17-16.29,3.67s-9.43-3.84-13-5.3-7.34-4.71-11.74-7.09-11.16-4.61-13.69-5.91-6.25-5.74-8.12-7a39.23,39.23,0,0,0-10.5-4.31C905.47,476.92,890,475,890,475Z" fill="#eb431e" opacity="0.84"/><path d="M880.75,475.17c1.3,0,22.17,1.42,31.95,4.42s9.13,9.28,18.91,11.37,17,10.57,22.86,12.82a118.45,118.45,0,0,0,11.64,3.74s11.14-3.51,17.66-3.76,14.23,4.75,22.76,3.75,20.15,1,30,0,26.79-4.78,31.35-4.64,6.41-1.86,10.7.89,34.29,4.25,38.85,3.75,17.6-3.75,17.6-3.75l10-.36s3.64-1.67,9.51-.53,0.65,0.64,5.87,1.14-3.26,1,5.22.5,4.65-.31,6.85-0.44a11,11,0,0,1,1.63-.06l25.21-2.5s-13.91-5.5-18.69-6.83a251.87,251.87,0,0,0-26.51-4.67c-6.52-.67-21.73-2.67-26.08-5.33s-13.91-8-13.91-8l-12.17.67s3.48,0.67-5.65-2.33,3,0.59-6.52-1-41.29-.78-44.33-0.2-11,2.83-11,2.83,1.9-1.08-5.05-1.08h-6.52S995.5,478,992,478.67s-25.27-.75-25.27-0.75l-16-1.42H934.21s-6.09-3.14-7.39-3.48-13.91,0-13.91,0l-21.73-.16Z" fill="#feda3c" stroke="#835121" stroke-linecap="round" stroke-linejoin="round"/><path d="M890,468l-2,1.82,0.93,3.08,3.23,1.11h5.54l11.74,1.75,7.82,2.75,6.85,6.5,8.8,2.78L943.4,492l6.79,6.25L960,503.5l5.22,2.25,8.48-1.75,8.48-1.5,11.74,1.63,7.82,1.88h29l15.32-1.75,9.78-1.5,5.57-.75,4.21-.25,9.78-1.5s10.43,4.25,13.37,4,19.89,2.5,22.17,1.75,11.41-1,13.37-1.5,11.74-2.75,13.37-2.75,4.45-2.25,7.44-1.5a136.89,136.89,0,0,0,14.4,2c1.3,0,9.13.5,9.13,0.5l2.1-.52-1.83-4.94-11.95-1.93-7.37-.87s-15.21,1.11-19.12,2.36-14.8,3.18-19.69,2.68-29.68-1.31-35.2-5.1c-2.46-1.69-15.18,1.94-20.72,2.81-5.87.93-14.12,2.57-25.48,2.54s-21.77.29-28.47,0c-7.66-.37-11.32-3.26-18.91-3.25-8.53,0-14.66,4.17-16.29,3.67s-9.43-3.84-13-5.3-7.34-4.71-11.74-7.09-11.16-4.61-13.69-5.91-6.25-5.74-8.12-7a39.23,39.23,0,0,0-10.5-4.31C905.47,469.92,890,468,890,468Z" fill="#eb431e" opacity="0.84"/><path d="M1170.7,509.35c-0.22-.59,10.78-1.38,10.78-1.38l5.22-1h4.4l2.14-.87a1.06,1.06,0,0,0,1-1.51,5.62,5.62,0,0,0-2.46-2.37l-19.21,1.81-3.42.83Z" fill="#eb431e"/><path d="M880.75,468.17c1.3,0,22.17,1.42,31.95,4.42s9.13,9.28,18.91,11.37,17,10.57,22.86,12.82a118.45,118.45,0,0,0,11.64,3.74s11.14-3.51,17.66-3.76,14.23,4.75,22.76,3.75,20.15,1,30,0,26.79-4.78,31.35-4.64,6.41-1.86,10.7.89,34.29,4.25,38.85,3.75,17.6-3.75,17.6-3.75l10-.36s3.64-1.67,9.51-.53,0.65,0.64,5.87,1.14-3.26,1,5.22.5,4.65-.31,6.85-0.44a11,11,0,0,1,1.63-.06l25.21-2.5s-13.91-5.5-18.69-6.83a251.87,251.87,0,0,0-26.51-4.67c-6.52-.67-21.73-2.67-26.08-5.33s-13.91-8-13.91-8l-12.17.67s3.48,0.67-5.65-2.33,3,0.59-6.52-1-41.29-.78-44.33-0.2-11,2.83-11,2.83,1.9-1.08-5.05-1.08h-6.52S995.5,471,992,471.67s-25.27-.75-25.27-0.75l-16-1.42H934.21s-6.09-3.14-7.39-3.48-13.91,0-13.91,0l-21.73-.16Z" fill="#feda3c" stroke="#835121" stroke-linecap="round" stroke-linejoin="round"/><path d="M1170.7,502.35c-0.22-.59,10.78-1.38,10.78-1.38l5.22-1h4.4l2.14-.87a1.06,1.06,0,0,0,1-1.51,5.62,5.62,0,0,0-2.46-2.37l-19.21,1.81-3.42.83Z" fill="#eb431e"/><path d="M890,461l-2,1.82,0.93,3.08,3.23,1.11h5.54l11.74,1.75,7.82,2.75,6.85,6.5,8.8,2.78L943.4,485l6.79,6.25L960,496.5l5.22,2.25,8.48-1.75,8.48-1.5,11.74,1.63,7.82,1.88h29l15.32-1.75,9.78-1.5,5.57-.75,4.21-.25,9.78-1.5s10.43,4.25,13.37,4,19.89,2.5,22.17,1.75,11.41-1,13.37-1.5,11.74-2.75,13.37-2.75,4.45-2.25,7.44-1.5a136.89,136.89,0,0,0,14.4,2c1.3,0,9.13.5,9.13,0.5l2.1-.52-1.83-4.94-11.95-1.93-7.37-.87s-15.21,1.11-19.12,2.36-14.8,3.18-19.69,2.68-29.68-1.31-35.2-5.1c-2.46-1.69-15.18,1.94-20.72,2.81-5.87.93-14.12,2.57-25.48,2.54s-21.77.29-28.47,0c-7.66-.37-11.32-3.26-18.91-3.25-8.53,0-14.66,4.17-16.29,3.67s-9.43-3.84-13-5.3-7.34-4.71-11.74-7.09-11.16-4.61-13.69-5.91-6.25-5.74-8.12-7a39.23,39.23,0,0,0-10.5-4.31C905.47,462.92,890,461,890,461Z" fill="#eb431e" opacity="0.84"/><path d="M1170.7,494.35c-0.22-.59,10.78-1.38,10.78-1.38l5.22-1h4.4l2.14-.87a1.06,1.06,0,0,0,1-1.51,5.62,5.62,0,0,0-2.46-2.37l-19.21,1.81-3.42.83Z" fill="#eb431e" opacity="0.84"/><path d="M880.75,460.17c1.3,0,22.17,1.42,31.95,4.42s9.1,9.37,18.91,11.37c9.39,1.91,16.94,10.53,22.86,12.82a116.71,116.71,0,0,0,11.64,3.74s11.14-3.51,17.66-3.76,14.23,4.75,22.76,3.75,20.15,1,30,0,26.79-4.78,31.35-4.64,6.41-1.86,10.7.89,34.29,4.25,38.85,3.75,17.6-3.75,17.6-3.75l10-.36s3.64-1.67,9.51-.53,0.65,0.64,5.87,1.14-3.26,1,5.22.5,2.33,12.09,8.07,14.19c1.54,0.56.41-14.69,0.41-14.69l25.21-2.5s-13.91-5.5-18.69-6.83a251.87,251.87,0,0,0-26.51-4.67c-6.52-.67-21.73-2.67-26.08-5.33s-13.91-8-13.91-8l-12.17.67s3.48,0.67-5.65-2.33,3,0.59-6.52-1-41.29-.78-44.33-0.2-11,2.83-11,2.83,1.9-1.08-5.05-1.08h-6.52S995.5,463,992,463.67s-25.27-.75-25.27-0.75l-16-1.42H934.21s-6.09-3.14-7.39-3.48-13.91,0-13.91,0l-21.73-.16Z" fill="#feda3c" stroke="#835121" stroke-linecap="round" stroke-linejoin="round"/><line x1="528.48" y1="635.59" x2="554.5" y2="571.5" fill="none" stroke="#835121" stroke-linecap="round" stroke-linejoin="round" stroke-width="3"/><line x1="543.85" y1="635.58" x2="564.56" y2="571.5" fill="none" stroke="#835121" stroke-linecap="round" stroke-linejoin="round" stroke-width="3"/><line x1="562.63" y1="635.6" x2="579.41" y2="571.5" fill="none" stroke="#835121" stroke-linecap="round" stroke-linejoin="round" stroke-width="3"/><line x1="580.61" y1="635.6" x2="592.49" y2="571.5" fill="none" stroke="#835121" stroke-linecap="round" stroke-linejoin="round" stroke-width="3"/><line x1="597.67" y1="635.6" x2="605.6" y2="571.5" fill="none" stroke="#835121" stroke-linecap="round" stroke-linejoin="round" stroke-width="3"/><line x1="747.33" y1="635.6" x2="713.75" y2="571.5" fill="none" stroke="#835121" stroke-linecap="round" stroke-linejoin="round" stroke-width="3"/><line x1="728.87" y1="635.4" x2="699.65" y2="572.16" fill="none" stroke="#835121" stroke-linecap="round" stroke-linejoin="round" stroke-width="3"/><line x1="641" y1="635.6" x2="640.51" y2="572.17" fill="none" stroke="#835121" stroke-linecap="round" stroke-linejoin="round" stroke-width="3"/><line x1="627.83" y1="635.49" x2="629.67" y2="571.5" fill="none" stroke="#835121" stroke-linecap="round" stroke-linejoin="round" stroke-width="3"/><line x1="613.17" y1="635.51" x2="618.17" y2="571.5" fill="none" stroke="#835121" stroke-linecap="round" stroke-linejoin="round" stroke-width="3"/><line x1="658.33" y1="635.46" x2="650" y2="571.5" fill="none" stroke="#835121" stroke-linecap="round" stroke-linejoin="round" stroke-width="3"/><line x1="673" y1="635.45" x2="660.17" y2="571.5" fill="none" stroke="#835121" stroke-linecap="round" stroke-linejoin="round" stroke-width="3"/><line x1="672.17" y1="571.5" x2="690.18" y2="635.43" fill="none" stroke="#835121" stroke-linecap="round" stroke-linejoin="round" stroke-width="3"/><line x1="684" y1="571.5" x2="707.67" y2="635.42" fill="none" stroke="#835121" stroke-linecap="round" stroke-linejoin="round" stroke-width="3"/><polygon points="518 635.6 547.35 571.5 727 571.5 761 635.37 518 635.6" fill="none" stroke="#835121" stroke-linecap="round" stroke-linejoin="round" stroke-width="3"/><ellipse cx="638.71" cy="600.09" rx="95.95" ry="19.8" fill="#feab21" stroke="#835121" stroke-miterlimit="10" stroke-width="0.2"/><ellipse cx="639.5" cy="599.97" rx="89.37" ry="15.5" fill="#eb431e"/><ellipse cx="639.5" cy="599.76" rx="82.93" ry="12.79" fill="url(#Degradado_sin_nombre_25)"/><ellipse cx="587.17" cy="597.88" rx="3.83" ry="1.88" fill="#4b7a41"/><ellipse cx="637.17" cy="591.88" rx="3.83" ry="1.88" fill="#4b7a41"/><ellipse cx="613.17" cy="592.88" rx="3.83" ry="1.88" fill="#4b7a41"/><ellipse cx="606.17" cy="603.88" rx="3.83" ry="1.88" fill="#4b7a41"/><ellipse cx="625.17" cy="599.88" rx="3.83" ry="1.88" fill="#4b7a41"/><ellipse cx="631.17" cy="607.88" rx="3.83" ry="1.88" fill="#4b7a41"/><ellipse cx="650" cy="607.88" rx="3.83" ry="1.88" fill="#4b7a41"/><ellipse cx="648.17" cy="599.88" rx="3.83" ry="1.88" fill="#4b7a41"/><ellipse cx="662.17" cy="593.88" rx="3.83" ry="1.88" fill="#4b7a41"/><ellipse cx="669.17" cy="603.88" rx="3.83" ry="1.88" fill="#4b7a41"/><ellipse cx="680.17" cy="597.88" rx="3.83" ry="1.88" fill="#4b7a41"/><ellipse cx="698.17" cy="597.88" rx="3.83" ry="1.88" fill="#4b7a41"/><path d="M279.06,411.12s18.52,3.81,23.19,27.55,2.83,33.25,11.5,40.58,21.92,17.58,43.25,15.5,22-4,42-7,28.67-.23,43.33,4.7,23.92,1.68,47.33-4.7,33.34-4.5,33.34-4.5l-2.86,3.16s-10.39-.62-29.89,3.88-32.25,11.87-50.12,4.81-27.87-6.81-40.5-4.81S375.75,496,357,497.13s-40.37-4.37-47.5-14.87-7.05-17.63-11.37-41.75C294.5,420.27,274,412.75,274,412.75Z" fill="#feab21" stroke="#835121" stroke-miterlimit="10" stroke-width="0.2"/><path d="M272.06,413.12s18.21,3.06,22.69,26.84c6,31.63,4.84,31.54,10.75,40.54,8.17,12.45,23.17,18.33,44.5,16.25s22-4,42-7,28.67-.23,43.33,4.7,23.92,1.68,47.33-4.7,33.34-4.5,33.34-4.5l-2.86,3.16s-10.39-.62-29.89,3.88-32.25,11.87-50.12,4.81-27.87-6.81-40.5-4.81S368.75,498,350,499.13s-40.37-4.37-47.5-14.87-7.05-17.63-11.37-41.75C287.5,422.27,267,414.75,267,414.75Z" fill="#feab21" stroke="#835121" stroke-miterlimit="10" stroke-width="0.2"/><path d="M265.06,415.12S283.51,419,288,442.75c6.63,35.15,8.5,39.68,12.12,43.75,7.55,8.48,21.54,14.33,42.88,12.25s22-4,42-7,28.67-.23,43.33,4.7,23.92,1.68,47.33-4.7,37.08-2.21,37.08-2.21l-5.5,3.25s-11.5-3-31,1.5-32.25,11.87-50.12,4.81-27.87-6.81-40.5-4.81S361.75,500,343,501.13s-40.37-4.37-47.5-14.87-7.05-17.63-11.37-41.75C280.5,424.27,260,416.75,260,416.75Z" fill="#feab21" stroke="#835121" stroke-miterlimit="10" stroke-width="0.2"/><path d="M258.06,417.12s17.68,3.36,23,27c5.48,24.46,4,32.66,10.73,40.91,6.5,8,22.92,17.83,44.25,15.75s22-4,42-7,28.67-.23,43.33,4.7,23.92,1.68,47.33-4.7,33.34-4.5,33.34-4.5l-2.86,3.16s-10.39-.62-29.89,3.88-32.25,11.87-50.12,4.81-27.87-6.81-40.5-4.81S354.75,502,336,503.13s-40.37-4.37-47.5-14.87-7.05-17.63-11.37-41.75C273.5,426.27,253,418.75,253,418.75Z" fill="#feab21" stroke="#835121" stroke-miterlimit="10" stroke-width="0.2"/><path d="M252.06,419.12S267,421.83,274,445c6.64,22,3.4,35.29,10.66,43.67,7.44,8.58,24,16.17,45.33,14.08s22-4,42-7,28.67-.23,43.33,4.7,23.92,1.68,47.33-4.7A93.64,93.64,0,0,1,505.26,494l-1.51,2.25s-21-2.5-40.5,2-32.25,11.87-50.12,4.81-27.87-6.81-40.5-4.81S348.75,504,330,505.13s-40.37-4.37-47.5-14.87-7.05-17.63-11.37-41.75C267.5,428.27,247,420.75,247,420.75Z" fill="#feab21" stroke="#835121" stroke-miterlimit="10" stroke-width="0.2"/><path d="M246.06,421.12s16.87,2.45,22.27,26c6,26.36,5.17,35.28,10.67,42.25,7,8.91,23.67,17.43,45,15.34s22-4,42-7,28.67-.23,43.33,4.7,23.92,1.68,47.33-4.7a83,83,0,0,1,43.58.28L496,500s-19.25-4.24-38.75.26-32.25,11.87-50.12,4.81-27.87-6.81-40.5-4.81S342.75,506,324,507.13s-40.37-4.37-47.5-14.87-7.05-17.63-11.37-41.75C261.5,430.27,241,422.75,241,422.75Z" fill="#feab21" stroke="#835121" stroke-miterlimit="10" stroke-width="0.2"/><path d="M240.06,423.12s14.59,3,21.69,26.13c7,22.76,4.39,35.08,12.25,42.75,8.13,7.93,22.66,16.83,44,14.75s22-4,42-7,28.67-.23,43.33,4.7,23.92,1.68,47.33-4.7S494.5,502,494.5,502l-2.83,4s-20.92-8.24-40.42-3.74-32.25,11.87-50.12,4.81-27.87-6.81-40.5-4.81S336.75,508,318,509.13s-40.37-4.37-47.5-14.87-7.05-17.63-11.37-41.75C255.5,432.27,235,424.75,235,424.75Z" fill="#feab21" stroke="#835121" stroke-miterlimit="10" stroke-width="0.2"/><path d="M234.06,425.12S252.32,428.21,257,452s2.68,34.22,11.35,41.55,22.33,17.33,43.67,15.25,22-4,42-7,28.67-.23,43.33,4.7,23.92,1.68,47.33-4.7S490,510,490,510l-4.75,2s-20.5-12.24-40-7.74-32.25,11.87-50.12,4.81-27.87-6.81-40.5-4.81S330.75,510,312,511.13s-40.37-4.37-47.5-14.87-7.05-17.63-11.37-41.75C249.5,434.27,229,426.75,229,426.75Z" fill="#feab21" stroke="#835121" stroke-miterlimit="10" stroke-width="0.2"/><path d="M228.06,427.12s18.5,4.29,23.17,28,4.61,33.76,13.27,41.09,20.17,16.58,41.5,14.5,22-4,42-7,28.67-.23,43.33,4.7,24.75,6,48.17-.42,38.5,6,38.5,6l-3,3a41.26,41.26,0,0,0-33.5-7c-19.5,4.5-34.5,8.13-52.37,1.07s-27.87-6.81-40.5-4.81S324.75,512,306,513.13s-40.37-4.37-47.5-14.87-7.05-17.63-11.37-41.75C243.5,436.27,223,428.75,223,428.75Z" fill="#feab21" stroke="#835121" stroke-miterlimit="10" stroke-width="0.2"/><path d="M221.06,429.12s19.35,5.69,24,29.43,2.75,32.1,11.42,39.43,21.17,16.85,42.5,14.76S321,513,341,510s28.67-4.51,43.33.42,22.25,8,45.67,1.58,45,21.51,45,21.51l-3,2.25S451.33,510.5,431.83,515s-31.83,5.12-49.71-1.94S354.63,510,342,512s-24.25,2-43,3.14-40.37-4.37-47.5-14.87-7.05-17.63-11.37-41.75C236.5,438.27,216,430.75,216,430.75Z" fill="#feab21" stroke="#835121" stroke-miterlimit="10" stroke-width="0.2"/><g id="humo" opacity="0.61"><circle cx="659.88" cy="425.13" r="5.88" fill="#fff" opacity="0.53"/><circle cx="660.88" cy="425.13" r="5.88" fill="#fff" opacity="0.31"/><circle cx="682.88" cy="375.13" r="5.88" fill="#fff" opacity="0.12"/><circle cx="664.88" cy="392.13" r="5.88" fill="#fff" opacity="0.53"/><circle cx="696.88" cy="440.13" r="5.88" fill="#fff" opacity="0.53"/><circle cx="674.92" cy="449.17" r="7.17" fill="#fff" opacity="0.4"/><circle cx="717.21" cy="420.78" r="7.26" fill="#fff" opacity="0.19"/><circle cx="686.56" cy="412.39" r="8.39" transform="translate(156.03 1012.37) rotate(-79.51)" fill="#fff" opacity="0.35"/><circle cx="524.14" cy="418.87" r="5.37" transform="translate(16.82 857.95) rotate(-79.51)" fill="#fff" opacity="0.16"/><circle cx="542.45" cy="374.21" r="4.87" transform="translate(75.71 839.45) rotate(-79.51)" fill="#fff" opacity="0.04"/><circle cx="525.01" cy="397.68" r="5.21" transform="translate(38.37 841.49) rotate(-79.51)" fill="#fff" opacity="0.07"/><circle cx="544.39" cy="422.62" r="6.86" transform="translate(29.7 880.94) rotate(-79.51)" fill="#fff" opacity="0.35"/><circle cx="716.62" cy="459.88" r="10.88" fill="#fff" opacity="0.29"/></g></svg>